#!OML:ASF H:\Martial Arts Walks\Project 1\Capture day 1\Session 1\male.ASF
:FULLY-SPECIFIED
:DEGREES
1529
root -5.07456 14.0372 11.8603 -140.272 77.2682 -154.897
lowerback 21.9079 3.97416 6.05639
upperback -1.78055 7.23327 1.88987
thorax -13.8617 2.95689 -3.66709
lowerneck -2.09019 12.0119 3.4798
upperneck 0.372449 16.0293 -5.57594
head 1.24119 7.98663 -1.94754
rclavicle 2.06736e-014 -1.11319e-014
rhumerus -31.4029 37.9461 -67.216
rradius 101.947
rwrist 6.81542
rhand -6.50852 -24.5523
rfingers 7.12502
rthumb 19.3435 -53.6103
lclavicle 2.06736e-014 -1.11319e-014
lhumerus -0.143038 -4.40385 76.2287
lradius 104.344
lwrist 41.1833
lhand -29.8967 13.6853
lfingers 7.12502
lthumb -3.21771 43.6407
rfemur -44.8992 -19.9219 0.817403
rtibia 69.8366
rfoot -2.49375 -16.1662
rtoes -2.03589
lfemur -66.095 13.1457 -11.6138
ltibia 80.7634
lfoot -27.3972 5.42648
ltoes -10.3458
1530
root -5.06844 14.1532 11.7276 -141.175 77.939 -155.841
lowerback 21.9756 3.97809 5.98845
upperback -1.7937 7.22324 1.87718
thorax -13.9238 2.95195 -3.64757
lowerneck -2.10496 11.9877 3.57286
upperneck 0.512296 16.0006 -5.62038
head 1.29989 7.97008 -1.97035
rclavicle 2.50469e-014 -7.95139e-015
rhumerus -31.9393 37.6156 -66.9969
rradius 101.911
rwrist 7.51056
rhand -6.3385 -24.4526
rfingers 7.12502
rthumb 19.5069 -53.494
lclavicle 2.50469e-014 -7.95139e-015
lhumerus -0.150888 -4.45651 75.9355
lradius 105.192
lwrist 41.1363
lhand -30.3519 14.0932
lfingers 7.12502
lthumb -3.65731 44.0415
rfemur -46.4053 -19.8507 1.98492
rtibia 71.3843
rfoot -4.01077 -14.0121
rtoes -5.97715
lfemur -65.051 12.6776 -12.5643
ltibia 79.581
lfoot -27.0815 5.86671
ltoes -9.68859
1531
root -5.06286 14.2618 11.5951 -142.295 78.6588 -157.006
lowerback 21.9641 3.95869 5.93839
upperback -1.78438 7.17419 1.83583
thorax -13.9101 2.93134 -3.64925
lowerneck -2.05038 11.9669 3.55409
upperneck 0.56792 15.9769 -5.62424
head 1.30618 7.95834 -1.97135
rclavicle -1.59028e-015 -8.74653e-015
rhumerus -32.3724 37.3643 -66.7668
rradius 101.907
rwrist 8.41808
rhand -7.01635 -25.2325
rfingers 7.12502
rthumb 18.8551 -54.3386
lclavicle -1.59028e-015 -8.74653e-015
lhumerus -0.225048 -4.38276 75.5758
lradius 106.146
lwrist 40.8775
lhand -30.8743 14.9214
lfingers 7.12502
lthumb -4.16177 44.8605
rfemur -48.1676 -20.0592 3.50442
rtibia 73.4414
rfoot -6.06654 -12.2983
rtoes -7.54253
lfemur -64.0319 12.2354 -13.5649
ltibia 78.4204
lfoot -26.7389 6.36622
ltoes -9.23515
1532
root -5.05802 14.3594 11.4563 -144.292 79.3129 -159.026
lowerback 21.9402 3.90004 5.97438
upperback -1.7774 7.08561 1.73546
thorax -13.8768 2.88383 -3.75129
lowerneck -1.91683 11.8554 3.36771
upperneck 0.629014 15.8344 -5.50837
head 1.2692 7.88847 -1.92027
rclavicle -4.69132e-014 -4.53229e-014
rhumerus -32.8507 37.0803 -66.5885
rradius 101.906
rwrist 9.40931
rhand -6.65967 -24.1945
rfingers 7.12502
rthumb 19.1981 -53.2669
lclavicle -4.69132e-014 -4.53229e-014
lhumerus -0.368404 -4.40203 75.1052
lradius 107.197
lwrist 40.5692
lhand -30.3776 16.2345
lfingers 7.12502
lthumb -3.68208 46.1824
rfemur -50.0229 -20.6972 5.32784
rtibia 75.8986
rfoot -7.98446 -11.1799
rtoes -11.268
lfemur -63.0706 11.6202 -14.6485
ltibia 77.294
lfoot -26.3212 6.85904
ltoes -8.90103
1533
root -5.05042 14.4595 11.3202 -146.741 80.1002 -161.468
lowerback 21.8697 3.85356 5.83756
upperback -1.74488 6.96388 1.65014
thorax -13.8119 2.83758 -3.72499
lowerneck -1.89232 11.9155 3.55856
upperneck 0.80782 15.9237 -5.72304
head 1.3642 7.93011 -2.00659
rclavicle -6.95746e-014 -1.82882e-014
rhumerus -33.2326 37.027 -66.4811
rradius 101.882
rwrist 10.1535
rhand -6.58653 -23.8084
rfingers 7.12502
rthumb 19.2684 -52.8738
lclavicle -6.95746e-014 -1.82882e-014
lhumerus -0.703288 -4.19624 74.6264
lradius 108.259
lwrist 40.338
lhand -31.5436 17.3452
lfingers 7.12502
lthumb -4.80806 47.2706
rfemur -51.9586 -21.1627 7.3082
rtibia 78.6038
rfoot -10.1444 -10.5253
rtoes -13.0993
lfemur -62.0099 11.1007 -15.8167
ltibia 76.1259
lfoot -25.8749 7.36974
ltoes -8.50134
1534
root -5.04098 14.5564 11.1832 -150.757 80.9493 -165.463
lowerback 21.7007 3.90627 5.43161
upperback -1.66255 6.89455 1.58188
thorax -13.6595 2.84217 -3.53509
lowerneck -1.88037 11.9131 3.63265
upperneck 1.0248 15.9363 -5.95727
head 1.46228 7.93241 -2.08258
rclavicle 3.06128e-014 -3.18055e-014
rhumerus -33.6085 36.8943 -66.219
rradius 101.909
rwrist 10.7159
rhand -6.58472 -23.673
rfingers 7.12502
rthumb 19.2702 -52.7383
lclavicle 3.06128e-014 -3.18055e-014
lhumerus -1.09931 -4.10138 74.2518
lradius 109.355
lwrist 40.3536
lhand -32.0042 18.2261
lfingers 7.12502
lthumb -5.25281 48.141
rfemur -53.8792 -21.635 9.30877
rtibia 81.4587
rfoot -12.1633 -10.0945
rtoes -14.7885
lfemur -60.9164 10.6288 -17.2145
ltibia 74.9327
lfoot -25.4102 7.70307
ltoes -7.96099
1535
root -5.02703 14.6525 11.0454 -157.161 81.8304 -171.852
lowerback 21.5165 4.00112 4.82256
upperback -1.59042 6.82071 1.45943
thorax -13.5263 2.85433 -3.29072
lowerneck -1.79838 11.8979 3.44349
upperneck 1.22134 15.9356 -6.04255
head 1.50343 7.92959 -2.0788
rclavicle -3.97569e-015 1.59028e-014
rhumerus -34.0652 36.8179 -65.9741
rradius 101.958
rwrist 11.1416
rhand -6.89168 -23.6321
rfingers 7.12502
rthumb 18.975 -52.7266
lclavicle -3.97569e-015 1.59028e-014
lhumerus -1.63753 -4.02367 74.0217
lradius 110.461
lwrist 40.4434
lhand -32.4968 18.6862
lfingers 7.12502
lthumb -5.72839 48.5888
rfemur -55.7872 -22.0831 11.262
rtibia 84.3504
rfoot -13.9599 -9.78063
rtoes -16.1736
lfemur -59.7565 10.1456 -18.8532
ltibia 73.7051
lfoot -24.9611 7.88338
ltoes -7.51572
1536
root -5.00758 14.7449 10.9027 -166.787 82.5795 -181.452
lowerback 21.2352 4.03835 4.33911
upperback -1.46968 6.65855 1.07148
thorax -13.2357 2.81057 -3.37291
lowerneck -1.82112 11.8863 3.5734
upperneck 1.42682 15.9334 -6.22823
head 1.60381 7.92433 -2.14763
rclavicle 4.21423e-014 8.5875e-014
rhumerus -34.4971 36.5007 -66.0114
rradius 101.963
rwrist 11.5163
rhand -7.31265 -23.7989
rfingers 7.12502
rthumb 18.5701 -52.9325
lclavicle 4.21423e-014 8.5875e-014
lhumerus -2.15115 -4.06786 73.5865
lradius 111.527
lwrist 40.7004
lhand -33.022 18.8195
lfingers 7.12502
lthumb -6.23547 48.7077
rfemur -57.5719 -22.6324 13.1311
rtibia 87.153
rfoot -15.5895 -9.30246
rtoes -16.8652
lfemur -58.5505 9.64199 -20.7228
ltibia 72.5108
lfoot -24.5559 7.78326
ltoes -7.05805
1537
root -4.98694 14.8336 10.7574 -177.303 83.0965 -191.896
lowerback 20.9795 4.08504 4.05894
upperback -1.33986 6.57409 0.709696
thorax -12.9261 2.7906 -3.56312
lowerneck -1.76637 11.8496 3.52279
upperneck 1.56522 15.9013 -6.38004
head 1.64824 7.90614 -2.18733
rclavicle -4.85035e-014 -2.54444e-014
rhumerus -34.9613 36.1407 -66.0485
rradius 101.982
rwrist 11.7376
rhand -7.32208 -23.8334
rfingers 7.12502
rthumb 18.561 -52.9678
lclavicle -4.85035e-014 -2.54444e-014
lhumerus -2.71503 -4.13054 73.1245
lradius 112.567
lwrist 40.9152
lhand -33.6411 18.7746
lfingers 7.12502
lthumb -6.8331 48.6443
rfemur -59.2284 -23.1511 15.3291
rtibia 89.7016
rfoot -16.8042 -8.84659
rtoes -18.0775
lfemur -57.4122 9.18747 -22.3869
ltibia 71.4668
lfoot -23.9624 7.46431
ltoes -7.68259
1538
root -4.96334 14.9289 10.6069 -187.755 83.3276 -202.208
lowerback 20.7168 4.06489 4.05221
upperback -1.18558 6.47184 0.326603
thorax -12.555 2.74721 -3.92046
lowerneck -1.72227 11.8583 3.55102
upperneck 1.70787 15.9271 -6.51871
head 1.70481 7.91688 -2.23182
rclavicle -1.11319e-014 3.02153e-014
rhumerus -35.4759 35.8585 -66.1466
rradius 102.106
rwrist 11.6486
rhand -7.60589 -24.2563
rfingers 7.12502
rthumb 18.288 -53.4166
lclavicle -1.11319e-014 3.02153e-014
lhumerus -3.33863 -4.12974 72.7262
lradius 113.522
lwrist 40.8353
lhand -34.1184 18.575
lfingers 7.12502
lthumb -7.29385 48.4293
rfemur -60.4881 -23.6383 17.7024
rtibia 91.8085
rfoot -17.8797 -7.8559
rtoes -18.1965
lfemur -56.3488 8.78477 -23.7484
ltibia 70.6493
lfoot -23.3032 6.15062
ltoes -8.38383
1539
root -4.93878 15.0337 10.4549 -197.74 83.1881 -211.936
lowerback 20.6897 3.88672 4.56621
upperback -1.07959 6.27721 -0.28253
thorax -12.303 2.61156 -4.81766
lowerneck -1.65453 11.8447 3.57425
upperneck 1.80683 15.9098 -6.42117
head 1.71702 7.90848 -2.20711
rclavicle 4.6118e-014 1.11319e-014
rhumerus -36.1263 35.3466 -66.7048
rradius 102.14
rwrist 11.5594
rhand -7.21838 -23.6925
rfingers 7.12502
rthumb 18.6608 -52.8174
lclavicle 4.6118e-014 1.11319e-014
lhumerus -4.03805 -4.16436 72.0355
lradius 114.365
lwrist 40.6116
lhand -34.294 18.3422
lfingers 7.12502
lthumb -7.46338 48.1906
rfemur -61.2683 -24.2852 20.0393
rtibia 93.3731
rfoot -18.4726 -6.36874
rtoes -18.4715
lfemur -55.3614 8.36106 -24.9419
ltibia 70.1273
lfoot -22.17 4.04485
ltoes -9.62971
1540
root -4.91242 15.1502 10.3027 -207.389 82.7568 -221.261
lowerback 20.4476 3.82137 4.66178
upperback -0.82195 6.15189 -0.623396
thorax -11.8307 2.5659 -5.17386
lowerneck -1.51601 11.8015 3.24005
upperneck 1.80639 15.865 -6.41479
head 1.65999 7.88763 -2.16484
rclavicle -1.11319e-014 2.8625e-014
rhumerus -36.5777 35.0159 -66.5945
rradius 102.283
rwrist 11.2052
rhand -6.9503 -23.3503
rfingers 7.12502
rthumb 18.9186 -52.4502
lclavicle -1.11319e-014 2.8625e-014
lhumerus -4.69859 -3.94074 71.9047
lradius 115.072
lwrist 40.2515
lhand -34.6547 18.0017
lfingers 7.12502
lthumb -7.81152 47.8374
rfemur -61.604 -24.9286 22.0485
rtibia 94.3028
rfoot -18.5491 -4.06968
rtoes -18.1119
lfemur -54.5043 7.9761 -26.0882
ltibia 69.9248
lfoot -20.7498 0.749598
ltoes -9.74219
